<svg width="19" height="25" viewBox="0 0 19 25" fill="none" xmlns="http://www.w3.org/2000/svg">
<path d="M18.9875 21.5938L17.6042 6.96094C17.5669 6.55781 17.2166 6.25 16.7966 6.25H15.9265C15.0636 6.25 14.364 5.55045 14.364 4.6875C14.364 3.43125 13.858 2.25312 12.9417 1.37031C12.0401 0.5 10.7848 0 9.49882 0C6.81648 0 4.63364 2.10312 4.63364 4.6875C4.63364 5.55045 3.93408 6.25 3.07114 6.25H2.20105C1.78102 6.25 1.43072 6.55781 1.39342 6.96094L0.0133349 21.5922C-0.0693732 22.4656 0.235512 23.3359 0.848525 23.9828C1.46154 24.6297 2.33403 25 3.24382 25H15.7554C16.6636 25 17.5361 24.6297 18.1491 23.9844C18.7637 23.3375 19.067 22.4656 18.9875 21.5938ZM12.7423 4.6875C12.7423 5.55045 12.0427 6.25 11.1798 6.25H7.81786C6.95492 6.25 6.25536 5.55045 6.25536 4.6875C6.25536 2.96406 7.71005 1.5625 9.49882 1.5625C10.3583 1.5625 11.1951 1.89375 11.7952 2.47344C12.4066 3.0625 12.7423 3.84844 12.7423 4.6875Z" fill="#1E1D1D"/>
</svg>
