<svg width="70" height="70" viewBox="0 0 70 70" fill="none" xmlns="http://www.w3.org/2000/svg">
<path d="M69.7255 63.3899L64.92 49.4045C67.2313 44.7324 68.4537 39.5245 68.4619 34.2845C68.4759 25.2608 64.9845 16.7285 58.6306 10.2593C52.2757 3.78913 43.8074 0.147219 34.7861 0.00407442C30.0596 -0.0718045 25.4732 0.799094 21.1474 2.5897C16.9752 4.31673 13.2336 6.81855 10.0267 10.0256C6.81969 13.2324 4.31788 16.974 2.59084 21.1463C0.799965 25.472 -0.0699765 30.0607 0.00494541 34.7849C0.147816 43.8063 3.78987 52.2745 10.2599 58.6295C16.7164 64.9709 25.2268 68.4612 34.2311 68.4611C34.2486 68.4611 34.2673 68.4611 34.285 68.4611C39.5251 68.453 44.7329 67.2306 49.4053 64.9191L63.3906 69.7246C63.9285 69.9095 64.4797 69.9996 65.025 69.9996C66.3204 69.9996 67.5802 69.4906 68.5358 68.535C69.8937 67.1774 70.3495 65.2059 69.7255 63.3899ZM33.8942 53.7441C32.7309 53.7441 31.8694 52.7932 31.8191 51.669C31.7689 50.5483 32.8088 49.5939 33.8942 49.5939C35.0576 49.5939 35.919 50.5448 35.9694 51.669C36.0197 52.7895 34.9797 53.7441 33.8942 53.7441ZM35.9694 37.894V44.4919C35.9694 45.6379 35.0402 46.5671 33.8942 46.5671C32.7483 46.5671 31.8191 45.6379 31.8191 44.4919V36.0284C31.8191 34.8824 32.7483 33.9533 33.8942 33.9533C37.2985 33.9533 40.0683 31.1835 40.0683 27.7792C40.0683 24.3749 37.2985 21.6051 33.8942 21.6051C30.4899 21.6051 27.7202 24.3749 27.7202 27.7792C27.7202 28.9251 26.791 29.8543 25.645 29.8543C24.4991 29.8543 23.5699 28.9251 23.5699 27.7792C23.5699 22.0865 28.2014 17.4549 33.8942 17.4549C39.5869 17.4549 44.2186 22.0863 44.2186 27.7792C44.2186 32.7615 40.6711 36.9309 35.9694 37.894Z" fill="#1E1D1D"/>
</svg>
