<svg width="33" height="35" viewBox="0 0 33 35" fill="none" xmlns="http://www.w3.org/2000/svg">
<path d="M10.9806 9.95215H5.58165C5.02258 9.95215 4.56934 10.4054 4.56934 10.9645C4.56934 11.5235 5.02258 11.9768 5.58165 11.9768H10.9806C11.5397 11.9768 11.993 11.5235 11.993 10.9645C11.993 10.4054 11.5397 9.95215 10.9806 9.95215Z" fill="#1E1D1D"/>
<path d="M10.9806 15.3516H5.58165C5.02258 15.3516 4.56934 15.8048 4.56934 16.3639C4.56934 16.9229 5.02258 17.3762 5.58165 17.3762H10.9806C11.5397 17.3762 11.993 16.9229 11.993 16.3639C11.993 15.8048 11.5397 15.3516 10.9806 15.3516Z" fill="#1E1D1D"/>
<path d="M10.9806 20.75H5.58165C5.02258 20.75 4.56934 21.2032 4.56934 21.7623C4.56934 22.3214 5.02258 22.7746 5.58165 22.7746H10.9806C11.5397 22.7746 11.993 22.3214 11.993 21.7623C11.993 21.2032 11.5397 20.75 10.9806 20.75Z" fill="#1E1D1D"/>
<path d="M25.4903 18.7212V9.47891C25.4903 8.14468 24.9759 6.88598 24.0417 5.934L19.9343 1.6864C19.9323 1.68438 19.9303 1.68229 19.9283 1.68026C18.9826 0.718567 17.6667 0.166992 16.3181 0.166992H3.28694C1.61237 0.166992 0.25 1.52936 0.25 3.20393V29.4566C0.25 31.1311 1.61237 32.4935 3.28694 32.4935H18.9328C20.3754 33.8725 22.3295 34.7206 24.478 34.7206C28.9435 34.7206 32.5765 31.1179 32.5765 26.6896C32.5765 22.6012 29.4798 19.2167 25.4903 18.7212ZM2.27462 29.4566V3.20393C2.27462 2.64574 2.72875 2.19162 3.28694 2.19162H16.3181C17.1262 2.19162 17.9147 2.5217 18.4821 3.09716L22.5888 7.34408C22.5908 7.34611 22.5927 7.34813 22.5946 7.35009C23.1563 7.9215 23.4657 8.6775 23.4657 9.47898V18.7222C19.5135 19.2215 16.447 22.6041 16.447 26.6896C16.447 28.0551 16.79 29.3419 17.3936 30.4689H3.28694C2.72875 30.4689 2.27462 30.0147 2.27462 29.4566ZM24.478 32.6959C21.1661 32.6959 18.4716 30.0015 18.4716 26.6896C18.4716 23.3776 21.1661 20.6832 24.478 20.6832C27.8271 20.6832 30.5519 23.3776 30.5519 26.6896C30.5519 30.0015 27.8271 32.6959 24.478 32.6959Z" fill="#1E1D1D"/>
<path d="M26.8129 24.2912C26.3835 23.9334 25.7452 23.9914 25.3872 24.4208L23.6786 26.4712L23.291 25.696C23.041 25.1959 22.4329 24.9931 21.9329 25.2433C21.4328 25.4933 21.2301 26.1014 21.4802 26.6015L22.56 28.7611C22.7127 29.0667 23.0094 29.2745 23.3487 29.3139C23.3878 29.3184 23.4267 29.3207 23.4655 29.3207C23.7639 29.3207 24.0495 29.1887 24.2431 28.9565L26.9426 25.717C27.3005 25.2874 27.2424 24.6491 26.8129 24.2912Z" fill="#1E1D1D"/>
<path d="M16.3795 11.9768H17.4593C18.0184 11.9768 18.4716 11.5235 18.4716 10.9645C18.4716 10.4054 18.0184 9.95215 17.4593 9.95215H16.3795C15.8204 9.95215 15.3672 10.4054 15.3672 10.9645C15.3672 11.5235 15.8204 11.9768 16.3795 11.9768Z" fill="#1E1D1D"/>
<path d="M18.4716 16.3639C18.4716 15.8048 18.0184 15.3516 17.4593 15.3516H16.3795C15.8204 15.3516 15.3672 15.8048 15.3672 16.3639C15.3672 16.9229 15.8204 17.3762 16.3795 17.3762H17.4593C18.0184 17.3762 18.4716 16.9229 18.4716 16.3639Z" fill="#1E1D1D"/>
</svg>
