<svg width="41" height="30" viewBox="0 0 41 30" fill="none" xmlns="http://www.w3.org/2000/svg">
<path d="M39.6082 13.331L36.8164 12.0858L34.4456 7.33139C33.8048 6.02959 32.505 5.21833 31.0862 5.22776H27.0036V4.03917C27.0036 1.88838 25.3376 0.133789 23.2506 0.133789H3.73495C1.64791 0.133789 0.00024356 1.89781 0.00024356 4.03917V22.2454C-0.0180638 23.5566 0.997995 24.632 2.27036 24.6509C2.27951 24.6509 2.28867 24.6509 2.30697 24.6509H2.79212C2.79212 24.7452 2.78296 24.783 2.78296 24.8396C2.77381 27.5375 4.88831 29.7354 7.50627 29.7449C10.1242 29.7543 12.257 27.5752 12.2662 24.8773C12.2662 24.8584 12.2662 24.849 12.2662 24.8301C12.2662 24.7641 12.2662 24.7358 12.257 24.6415H28.0288C28.0288 24.7358 28.0288 24.7735 28.0288 24.8301C28.0197 27.528 30.1342 29.726 32.7521 29.7354C35.3701 29.7449 37.5029 27.5658 37.5121 24.8679C37.5121 24.849 37.5121 24.8396 37.5121 24.8207C37.5121 24.7547 37.5121 24.7264 37.5121 24.632H38.6929C39.9652 24.632 40.9996 23.5661 40.9996 22.2548C40.9996 22.2454 40.9996 22.236 40.9996 22.2171V15.5195C41.0179 14.595 40.4687 13.7177 39.6082 13.331ZM7.53373 27.8676C5.92268 27.8676 4.62286 26.5281 4.62286 24.8679C4.62286 23.2076 5.92268 21.8681 7.53373 21.8681C9.14478 21.8681 10.4446 23.2076 10.4446 24.8679C10.4446 26.5187 9.13562 27.8676 7.53373 27.8676ZM25.1729 22.7831H11.8268C11.0579 21.0568 9.37362 19.9531 7.53373 19.9626C5.68468 19.9531 4.00956 21.0474 3.24065 22.7831H2.30697C2.02321 22.7831 1.83098 22.5567 1.83098 22.2643V17.4061H25.1729V22.7831ZM25.1729 4.0486V15.5195H1.83098V4.0486C1.83098 2.94491 2.66397 2.02988 3.73495 2.02988H23.2506C24.3216 2.03931 25.182 2.94491 25.1729 4.03917V4.0486ZM27.0036 7.12385H31.0862C31.8093 7.11442 32.4867 7.52005 32.8254 8.18982L34.6561 11.8405H27.0036V7.12385ZM32.7796 27.8676C31.1685 27.8676 29.8687 26.5281 29.8687 24.8679C29.8687 23.2076 31.1685 21.8681 32.7796 21.8681C34.3906 21.8681 35.6905 23.2076 35.6905 24.8679C35.6905 26.5187 34.3906 27.8676 32.7796 27.8676ZM39.178 22.2643C39.178 22.5567 38.9858 22.7831 38.702 22.7831H37.0727C35.9651 20.3399 33.1457 19.2834 30.7749 20.4248C29.768 20.9059 28.9534 21.7454 28.4865 22.7831H27.0036V13.7272H35.9742L38.8851 15.0478C39.0682 15.1421 39.1872 15.3497 39.178 15.5572V22.2643Z" fill="#1E1D1D"/>
</svg>
