<svg width="36" height="36" viewBox="0 0 36 36" fill="none" xmlns="http://www.w3.org/2000/svg">
<path d="M33.8906 1.75781H2.10938C0.946266 1.75781 0 2.70408 0 3.86719V24.8203C0 25.9834 0.946266 26.9297 2.10938 26.9297H12.4453V32.1328H6.75C6.16753 32.1328 5.69531 32.605 5.69531 33.1875C5.69531 33.77 6.16753 34.2422 6.75 34.2422H29.25C29.8325 34.2422 30.3047 33.77 30.3047 33.1875C30.3047 32.605 29.8325 32.1328 29.25 32.1328H23.5547V26.9297H33.8906C35.0537 26.9297 36 25.9834 36 24.8203V3.86719C36 2.70408 35.0537 1.75781 33.8906 1.75781ZM21.4453 32.1328H14.5547V26.9297H21.4453V32.1328ZM33.8906 24.8203C32.9655 24.8203 2.85075 24.8203 2.10938 24.8203V3.86719H33.8906C33.892 25.2754 33.8977 24.8203 33.8906 24.8203Z" fill="#1E1D1D"/>
</svg>
